<?xml version="1.0" standalone="no"?><svg xmlns="http://www.w3.org/2000/svg" viewBox="0 0 1440 320"><path fill="#674188" fill-opacity="1" d="M0,96L26.7,122.7C53.3,149,107,203,160,234.7C213.3,267,267,277,320,272C373.3,267,427,245,480,197.3C533.3,149,587,75,640,85.3C693.3,96,747,192,800,208C853.3,224,907,160,960,160C1013.3,160,1067,224,1120,218.7C1173.3,213,1227,139,1280,96C1333.3,53,1387,43,1413,37.3L1440,32L1440,320L1413.3,320C1386.7,320,1333,320,1280,320C1226.7,320,1173,320,1120,320C1066.7,320,1013,320,960,320C906.7,320,853,320,800,320C746.7,320,693,320,640,320C586.7,320,533,320,480,320C426.7,320,373,320,320,320C266.7,320,213,320,160,320C106.7,320,53,320,27,320L0,320Z"></path></svg>